<?xml version="1.0" encoding="utf-8"?>
<svg viewBox="-281.17515 -83.2845 2436.8513 499.707" xmlns="http://www.w3.org/2000/svg">
  <defs>
    <style id="style2">.a{fill:#88171a}.b{fill:#231f20}</style>
  </defs>
  <path stroke="rgb(255,0,0)" stroke-width="0" d="M 136.427 2.343 C 144.828 1.667 174.577 3.951 191.325 9.205 C 207.361 14.237 228.992 25.136 235.167 32.461 C 238.714 36.668 238.208 40.997 237.454 44.66 C 236.723 48.217 234.697 52.135 230.973 54.191 C 226.065 56.901 214.663 56.638 208.099 56.478 C 202.672 56.346 196.218 52.729 193.994 54.191 C 192.295 55.308 192.832 59.709 193.231 61.434 C 193.521 62.688 194.038 63.094 195.137 64.103 C 196.886 65.708 202.067 67.229 203.906 69.822 C 205.697 72.347 203.915 76.502 206.193 79.352 C 209.18 83.09 218.86 83.426 222.967 88.883 C 227.926 95.472 231.156 112.211 231.354 118.619 C 231.47 122.345 229.324 122.767 229.067 126.244 C 228.68 131.487 232.064 141.365 231.354 148.356 C 230.674 155.059 228.27 161.19 225.255 167.417 C 222.046 174.042 211.794 182.432 212.293 186.86 C 212.664 190.161 218.875 189.338 221.442 193.341 C 225.365 199.458 228.627 216.09 229.829 224.602 C 230.737 231.026 231.483 234.188 229.829 240.614 C 227.505 249.646 218.394 266.286 213.055 274.162 C 209.241 279.79 207.437 282.427 201.999 285.981 C 194.72 290.738 180.895 296.085 170.738 298.18 C 161.364 300.114 152.661 300.095 143.29 298.943 C 133.372 297.722 122.422 295.68 112.791 290.555 C 102.381 285.016 88.4 273.979 83.436 265.775 C 79.726 259.644 80.299 250.542 80.386 247.476 C 80.425 246.121 81.166 245.907 81.149 245.189 C 81.133 244.515 81.336 243.823 80.386 243.283 C 78.009 241.929 65.762 242.862 60.181 240.995 C 55.392 239.394 50.705 237.175 48.363 233.752 C 46.068 230.399 45.277 224.612 46.075 220.79 C 46.832 217.165 49.96 213.434 52.556 211.259 C 54.877 209.314 59.112 210.603 60.562 207.828 C 62.697 203.741 58.639 188.008 59.037 184.954 C 59.178 183.874 59.836 184.206 59.8 183.429 C 59.734 182.022 57.313 179.383 56.75 176.567 C 56.049 173.064 55.571 168.207 56.75 163.605 C 58.146 158.155 64.665 151.517 65.899 146.068 C 66.942 141.464 64.684 135.797 65.137 133.106 C 65.402 131.53 66.977 131.214 66.662 130.056 C 66.193 128.335 61.33 126.728 59.8 123.957 C 58.073 120.83 56.697 115.497 57.512 111.757 C 58.332 107.996 60.896 103.631 64.756 101.464 C 69.466 98.819 81.847 99.02 85.342 99.176 C 86.906 99.247 87.085 100.301 88.011 99.939 C 89.335 99.421 89.575 96.332 92.204 94.602 C 96.665 91.666 113.759 89.655 116.222 86.215 C 117.695 84.158 116.365 80.793 114.697 79.352 C 112.69 77.619 106.957 79.176 103.641 77.827 C 100.356 76.492 96.725 74.335 94.873 71.346 C 92.923 68.199 91.771 62.887 92.586 59.147 C 93.405 55.386 97.051 51.154 99.829 48.854 C 102.227 46.868 106.742 47.625 107.835 45.423 C 109.063 42.947 104.649 37.956 105.548 33.986 C 106.619 29.254 112.17 21.827 115.841 19.118 C 118.626 17.062 122.189 18.817 124.609 16.83 C 127.474 14.479 128.721 6.947 131.09 4.631 C 132.765 2.993 133.018 2.618 136.427 2.343 Z M 126.134 144.162 C 124.836 145.292 130.244 158.015 132.996 160.936 C 134.824 162.876 137.688 163.741 139.096 163.224 C 140.374 162.754 141.238 160.271 141.383 158.649 C 141.534 156.973 141.329 155.167 139.859 153.312 C 137.584 150.444 127.384 143.074 126.134 144.162 Z M 177.982 226.508 C 176.122 225.744 169.148 225.881 163.495 227.271 C 156.034 229.105 140.194 236.65 136.809 238.708 C 135.612 239.435 134.78 239.908 135.284 240.233 C 136.678 241.131 155.26 239.839 162.732 238.708 C 168.594 237.82 174.772 237.216 177.219 234.895 C 179.028 233.181 178.846 229.433 178.744 228.033 C 178.687 227.239 178.771 226.833 177.982 226.508 Z" style="stroke: rgb(129, 151, 57); stroke-width: 2px; fill: rgb(255, 255, 255);"/>
  <path id="path8" d="M402.695 252.47L337.48 52.48h24.456l49.636 154.34 50.904-154.34h22.282l50.723 153.98 49.817-153.98h23.731l-65.034 199.99H525.88L473.165 91.43l-52.172 161.04h-18.296z" class="a" style="fill: rgb(216, 222, 233);" transform="matrix(1, 0, 0, 1, 0, -4.263256414560601e-14)"/>
  <path id="path10" d="M604.565 252.47V97.4h24.637v155.07z" class="a" style="fill: rgb(216, 222, 233);" transform="matrix(1, 0, 0, 1, 0, -4.263256414560601e-14)"/>
  <path id="path12" d="M686.315 184.9v67.57h-24.274V98.13h106.52q23.73 0 37.136 11.413 13.404 11.413 13.405 31.702a41.774 41.774 0 01-10.598 28.531q-10.597 12.05-27.625 14.764l42.933 67.932h-26.267l-43.839-67.57h-67.389zm0-22.644h82.243q12.5 0 19.112-5.435 6.61-5.434 6.612-15.579 0-10.143-6.612-15.488-6.615-5.341-19.112-5.344h-82.243v41.846z" class="a" style="fill: rgb(216, 222, 233);" transform="matrix(1, 0, 0, 1, 0, -4.263256414560601e-14)"/>
  <path id="path14" d="M841.985 252.47V97.77h145.1v22.644h-120.83v38.585H945.6v22.282h-79.345v48.911h127.53v22.282h-151.81z" class="a" style="fill: rgb(216, 222, 233);" transform="matrix(1, 0, 0, 1, 0, -4.263256414560601e-14)"/>
  <path id="path16" d="M1164.465 198.31v-29.347h-54.527v-23.006h79.345V206.1q-14.495 24.999-37.77 38.313-23.28 13.315-52.806 13.315-44.929 0-74.182-29.619-29.257-29.618-29.256-75.087 0-45.65 29.347-75.269 29.347-29.618 74.091-29.618 27.716 0 50.542 12.137a98.119 98.119 0 0137.136 34.6l-20.833 14.854a68.382 68.382 0 00-27.173-28.079 78.549 78.549 0 00-39.672-10.145q-33.694 0-55.795 23.097-22.104 23.096-22.1 58.421 0 35.325 22.1 58.331 22.1 23.008 55.795 23.006 21.012 0 37.408-9.058 16.393-9.056 28.351-26.992z" class="a" style="fill: rgb(216, 222, 233);" transform="matrix(1, 0, 0, 1, 0, -4.263256414560601e-14)"/>
  <path id="path18" d="M1216.365 98.133h24.274v99.09q0 22.282 10.507 30.071 10.504 7.79 41.665 7.79 31.338 0 41.846-7.79 10.504-7.786 10.507-30.071v-99.09h24.093v105.43q0 28.442-18.025 41.122-18.027 12.677-58.784 12.681-40.58 0-58.33-12.5-17.757-12.5-17.754-41.303V98.133z" class="a" style="fill: rgb(216, 222, 233);" transform="matrix(1, 0, 0, 1, 0, -4.263256414560601e-14)"/>
  <path id="path20" d="M1365.465 252.47l78.62-154.7h15.217l79.345 154.7h-25.905l-20.108-39.31h-81.7l-19.927 39.31zm55.976-59.78h60.505l-30.07-59.237z" class="a" style="fill: rgb(216, 222, 233);" transform="matrix(1, 0, 0, 1, 0, -4.263256414560601e-14)"/>
  <path id="path22" d="M1565.565 184.9v67.57h-24.274V98.13h106.52q23.73 0 37.136 11.413 13.404 11.413 13.405 31.702a41.774 41.774 0 01-10.598 28.531q-10.597 12.05-27.625 14.764l42.933 67.932h-26.267l-43.839-67.57h-67.389zm0-22.644h82.243q12.5 0 19.112-5.435 6.61-5.434 6.612-15.579 0-10.143-6.612-15.488-6.615-5.341-19.112-5.344h-82.243v41.846z" class="a" style="fill: rgb(216, 222, 233);" transform="matrix(1, 0, 0, 1, 0, -4.263256414560601e-14)"/>
  <path id="path24" d="M1790.265 97.771q37.86 0 61.048 21.647 23.186 21.65 23.188 56.248 0 34.964-22.735 55.886-22.736 20.922-61.5 20.923h-68.658v-154.7h68.657zm.363 22.282h-44.745v110.14h44.745q27.534 0 43.295-14.764 15.76-14.762 15.76-40.125 0-24.456-16.304-39.854-16.304-15.395-42.752-15.398z" class="a" style="fill: rgb(216, 222, 233);" transform="matrix(1, 0, 0, 1, 0, -4.263256414560601e-14)"/>
  <path id="path80" d="M299.745 145.56S306.685 0 146.705 0C5.225 0 .805 139.63.805 139.63S-20.005 300 149.965 300c163.02 0 149.78-154.44 149.78-154.44zm-197.8-50.863c30.017-18.364 68.366-7.14 82.735 20.476 2.724 5.234 3.07 13.291 1.345 18.782-5.955 18.956-20.014 29.587-39.312 34.103 5.69-4.87 10.218-10.394 11.659-18.025a26.402 26.402 0 00-4.543-20.956 26.76 26.76 0 00-30.81-9.39c-11.882 4.512-18.39 15.355-17.217 28.684 1.09 12.38 10.484 20.405 28.061 23.453-2.627 1.39-4.65 2.414-6.63 3.517a63.918 63.918 0 00-20.543 17.868c-1.784 2.408-3.01 2.602-5.727.941-35.338-21.61-37.61-75.844.982-99.453zm-26.449 133.53c-5.677 1.441-11.178 3.574-16.98 5.478 2.838-19.152 25.264-36.789 44.23-34.777a48.881 48.881 0 00-9.243 25.893c-6.302 1.161-12.24 1.942-18.007 3.405zm120.79-186.98c5.61.206 11.23.12 16.844.254a29.052 29.052 0 014.168.58 40.607 40.607 0 01-4.236 5.434c-2.007 1.87-4.275 3.698-7.166.856-.696-.684-2.339-.527-3.549-.543-5.582-.073-11.172-.252-16.746-.041a104.04 104.04 0 00-14.425 1.473c-.894.16-2.23 3.131-1.819 4.227.97 2.585 2.383 5.436 4.478 7.09 7.74 6.11 15.972 11.595 23.748 17.663 7.556 5.897 14.589 12.358 18.875 21.253 5.584 11.59 5.747 23.743 3.339 35.95-4.02 20.378-14.333 37.261-31.032 49.524-6.729 4.941-15.06 7.746-22.767 11.295-6.778 3.123-13.755 5.812-20.55 8.901-12.248 5.57-19.132 18.865-17.107 32.688 1.858 12.685 12.987 23.271 25.735 25.456 15.292 2.622 31.07-7.316 34.812-22.86 4.206-17.478-5.29-33.083-23.065-37.813-.783-.208-1.569-.405-3.201-.827 4.754-2.124 8.861-3.638 12.653-5.724q9.92-5.46 19.48-11.562c1.875-1.2 2.887-1.2 4.486.182 12.225 10.57 19.518 23.718 21.563 39.84 3.384 26.683-9.247 51.197-33.072 63.761-36.86 19.44-81.965-2.686-90.106-43.552-6.974-35.003 17.73-66.754 47.462-72.884 12.787-2.636 24.48-7.96 33.57-17.807 5.865-6.354 8.708-11.806 9.677-14.266a39.565 39.565 0 002.721-14.469 33.867 33.867 0 00-2.965-12.398c-3.104-7.075-14.995-18.33-17.94-20.704l-28-21.92c-.987-.813-2.099-.754-4.507-.591-2.861.194-10.175.599-13.331-.228 2.553-1.933 9.513-4.746 12.502-7.007-9.074-6.13-19.43-3.916-28.941-5.747 2.199-4.095 13.08-10.39 19.27-11.09a91.533 91.533 0 00-1.688-10.282c-.378-1.391-1.931-2.74-3.286-3.535-3.286-1.927-6.77-3.517-10.55-5.433a21.936 21.936 0 0111.333-3.505A42.316 42.316 0 01134.3 23.99c6.742 1.54 12.124.535 17.488-4.048-4.222-1.7-8.444-3.253-12.538-5.09a123.04 123.04 0 01-11.78-6.159c10.623 1.476 20.897 5.459 31.758 4.004l.277-1.481-25.229-5.873c15.04-1.376 29.042-1.604 42.301 4.855 3.731 1.817 7.635 3.321 11.211 5.397 1.744 1.012 2.919 3.008 4.35 4.56 1.136 1.232 2.05 2.883 3.446 3.626 5.3 2.818 11.134 2.929 17.078 2.787l.13-1.993c5.983 1.87 12.715 8.768 12.704 13.806-9.69 0-19.374-.037-29.056.054-1.034.01-2.062.766-3.093 1.175.98.571 1.943 1.6 2.942 1.637z" class="a" style="" transform="matrix(1, 0, 0, 1, 0, -4.263256414560601e-14)"/>
  <path id="path82" d="M183.785 26.906a1.48 1.48 0 00-.189 2.369 2.233 2.233 0 003.072.822c.933-.471 1.848-.972 2.975-1.567-.908-.775-1.636-1.415-2.385-2.032-1.318-1.086-2.411-.404-3.473.408z" class="a" transform="matrix(1, 0, 0, 1, 0, -4.263256414560601e-14)"/>
  <g id="g86" stroke-width="1" transform="matrix(1, 0, 0, 1, 293.80499267578125, 179.57000732421875)">
    <path id="path84" d="M1566.2-95.856h-1.24c-7.56.08-11.84 6.64-11.84 13 0 6.16 3.92 12.32 12.2 12.32h.56c8.6-.24 12.36-6.16 12.36-12.24v-.72c-.28-6.36-4.84-12.36-12.04-12.36zm-5.52 5.16v14.44h1.8v-12.96h3.4c1.88 0 2.8 1.16 2.8 2.32 0 1.4-1.36 3-3.8 3-.36 0-.84-.08-1.28-.16l5.44 7.8h2.36l-4.92-6.64c2.4-.44 4-2.36 4-4.24 0-1.76-1.52-3.56-4.88-3.56zm-3.44.28c2.52-2.72 5.16-3.72 8.24-3.72h1.28c5.48.24 9.44 5.8 9.44 11.16 0 .76-.08 1.64-.24 2.36-.84 4.92-5.12 8.36-10.08 8.36-.12 0-.36.04-.48.04-6.28 0-10.28-5.68-10.28-11.36 0-.48.08-1.12.12-1.64 0 0 .28-3.12 2-5.2z" style="fill: rgb(216, 222, 233);"/>
  </g>
</svg>
